<svg version="1.1" id="Layer_1" xmlns="http://www.w3.org/2000/svg" xmlns:xlink="http://www.w3.org/1999/xlink" x="0px" y="0px"
	 width="100px" height="100px" viewBox="0 0 100 100" enable-background="new 0 0 100 100" xml:space="preserve">
<path fill="#ffffff" stroke="#000000" stroke-miterlimit="10" d="M94.798,3.516C61.27-0.107,35.859,36.384,33.04,58.326
	c10.061-14.313,27.29-34.559,46.099-45.602C62.396,24.676,45.113,43.271,32.763,62.443c-0.558,0.867-1.106,1.736-1.644,2.604
	c-0.082,0.132-0.161,0.263-0.241,0.394c-0.24,0.393-0.473,0.783-0.71,1.176h-13.54c-0.761,0-1.382,0.622-1.382,1.382v3.574
	c0,0.76,0.622,1.381,1.382,1.381h1.641v5.119h-7.124c-1.9,0-3.641,1.544-3.867,3.43L5.666,94.874
	c-0.227,1.886,1.142,3.431,3.042,3.431h40.865c1.899,0,3.268-1.545,3.042-3.431l-1.611-13.371c-0.229-1.886-1.968-3.43-3.868-3.43
	h-7.123v-5.119h1.639c0.761,0,1.382-0.621,1.382-1.381v-3.574c0-0.76-0.622-1.382-1.382-1.382h-8.3
	c0.798-1.361,1.627-2.737,2.499-4.133c12.549,0.061,22.306-3.002,30.012-8.1c-4.938-2.479-12.688-5.291-18.218-6.404
	c6.66,0.2,12.626,0.215,22.199,3.449C80.04,42.975,86.17,30.615,90.561,17.728c-3.957-0.662-8.125-1.104-11.434-1.12
	c3.994-0.66,7.729-1.335,12.29-1.467C92.663,11.263,93.771,7.357,94.798,3.516z M43.033,80.188l1.949,16.328h-4.874l-1.95-16.328
	H43.033z M35.997,67.471h1.949v4.631h-1.949V67.471z M35.265,75.229h1.543v2.846h-1.543V75.229z"/>
</svg>
