<?xml version="1.0" encoding="utf-8"?>
<!-- Generator: Adobe Illustrator 15.0.2, SVG Export Plug-In . SVG Version: 6.00 Build 0)  -->
<!DOCTYPE svg PUBLIC "-//W3C//DTD SVG 1.1//EN" "http://www.w3.org/Graphics/SVG/1.1/DTD/svg11.dtd">
<svg version="1.1"
	 id="Layer_1" xmlns:rdf="http://www.w3.org/1999/02/22-rdf-syntax-ns#" xmlns:inkscape="http://www.inkscape.org/namespaces/inkscape" sodipodi:docname="refresh.svg" inkscape:version="0.48.4 r9939" xmlns:svg="http://www.w3.org/2000/svg" xmlns:sodipodi="http://sodipodi.sourceforge.net/DTD/sodipodi-0.dtd" xmlns:dc="http://purl.org/dc/elements/1.1/" xmlns:cc="http://creativecommons.org/ns#"
	 xmlns="http://www.w3.org/2000/svg" xmlns:xlink="http://www.w3.org/1999/xlink" x="0px" y="0px" width="43px" height="46px"
	 viewBox="0 0 43 46" enable-background="new 0 0 43 46" xml:space="preserve">
<sodipodi:namedview  guidetolerance="10" gridtolerance="10" borderopacity="1" objecttolerance="10" bordercolor="#666666" pagecolor="#ffffff" inkscape:pageopacity="0" inkscape:pageshadow="2" inkscape:window-width="1440" inkscape:window-height="844" showgrid="false" inkscape:cy="16" inkscape:zoom="7.375" inkscape:cx="-6.0338993" inkscape:window-x="0" inkscape:window-y="27" inkscape:window-maximized="1" inkscape:current-layer="Layer_1" id="namedview4">
	</sodipodi:namedview>
<g id="g2982">
	
		<path id="acw" inkscape:connector-curvature="0" sodipodi:nodetypes="cccccccccccccccccccc" fill="#FFFFFF" stroke="#000000" stroke-miterlimit="10" d="
		M42.081,24.996l-13.01,6.775l3.464,2.426c-4.751,5.552-12.764,6.75-18.892,2.445c-4.132-2.881-6.279-6.799-6.399-11.654
		l-5.963,0.127c0.157,6.775,3.378,12.588,9.174,16.626c8.812,6.177,20.462,4.233,27.016-4.144l3.742,2.613L42.081,24.996z
		 M10.855,13.633c4.751-5.553,12.769-6.754,18.884-2.482c4.135,2.898,6.554,6.661,6.673,11.518l5.695,0.147
		c-0.158-6.779-3.369-12.72-9.15-16.77C24.15-0.122,12.491,1.816,5.937,10.188L2.198,7.564L1.317,22.836l13.014-6.773L10.855,13.633
		z"/>
</g>
</svg>
